<svg id="background" xmlns="http://www.w3.org/2000/svg" viewBox="0 0 184.01 50.27"><defs><style>.cls-1{fill:#0075a9;}</style></defs><path class="cls-1" d="M110.93,91.82,105.4,79.13a3.51,3.51,0,0,0-3-2.11H92.09a3.58,3.58,0,0,0-3.3,2.26L68.58,123.63a2.75,2.75,0,0,0,.1,2.57,2.41,2.41,0,0,0,2.11,1.09H94.52a3.24,3.24,0,0,0,3.08-1.85l2.81-6.34,16,0h.19a4.16,4.16,0,0,0,3.33-1.81,5,5,0,0,0,.41-4.71ZM118,114.65a1.73,1.73,0,0,1-.3,1,1.53,1.53,0,0,1-1.22.67H101.62l8.66-19.49,4.16,9.2c2.08,4.6,3.35,7.43,3.37,7.46A3.24,3.24,0,0,1,118,114.65Zm-22.86,9.67c-.1.23-.52.24-.64.24H71.08l20.1-44.1a.87.87,0,0,1,.91-.57h10.28a.69.69,0,0,1,.61.38l5.53,12.67.11.26a1.14,1.14,0,0,1,.1.41,1.25,1.25,0,0,1-.12.47l0,.07c-.52,1.19-9.5,21.4-12.45,28Z" transform="translate(-68.31 -77.02)"/><path class="cls-1" d="M196,77H176.42a3.51,3.51,0,0,0-2.56,1.17,4.25,4.25,0,0,0-1,2.9v33.62c0,2,1.38,4.14,3.44,4.14H195.7a3.89,3.89,0,0,0,3.7-4.07V81.23a4.37,4.37,0,0,0-1.14-3.15A3.25,3.25,0,0,0,196,77Zm0,2.8a.55.55,0,0,1,.42.19,1.81,1.81,0,0,1,.36,1.22l0,33.55a1.22,1.22,0,0,1-1,1.35H176.28c-.27,0-.77-.59-.77-1.42V81.21a1.71,1.71,0,0,1,.28-1.15.88.88,0,0,1,.64-.21Z" transform="translate(-68.31 -77.02)"/><path class="cls-1" d="M251.72,79a4,4,0,0,0-3.33-2H207.26a4.21,4.21,0,0,0-4.36,4.42v33.25a4.49,4.49,0,0,0,1.15,3.1,3.42,3.42,0,0,0,2.54,1h18.87a4.09,4.09,0,0,0,4-4.06v-7.43h7.43a6.37,6.37,0,0,0,6-3.62l8.93-20.23A4.88,4.88,0,0,0,251.72,79Zm-2.06,2.25a2.9,2.9,0,0,1-.26,1.15l-8.92,20.22a3.74,3.74,0,0,1-3.61,2l-7.42,0,0-24.83h18.85a1.46,1.46,0,0,1,1.13.6A1.65,1.65,0,0,1,249.66,81.22Zm-22.87,33.56a1.46,1.46,0,0,1-1.33,1.33H206.6a.88.88,0,0,1-.66-.24,1.76,1.76,0,0,1-.38-1.18V81.44a1.51,1.51,0,0,1,1.7-1.64H226.8Z" transform="translate(-68.31 -77.02)"/><path class="cls-1" d="M166.34,77H128.43a3.89,3.89,0,0,0-4.19,4.1v34a3.62,3.62,0,0,0,3.43,3.84h19.44a3.9,3.9,0,0,0,3.69-4.07v-7.56h3.28A8.29,8.29,0,0,0,157,107a2.65,2.65,0,0,0,1.24-1.31l3.63-8.26c.06-.15.18-.4.34-.72s.41-.85.65-1.4.4-.9.63-1.39l.7-1.57c.24-.55.49-1.1.75-1.67.12-.25.24-.51.35-.77s.29-.68.45-1l3.36-7.53a3.13,3.13,0,0,0-.2-2.93A3.05,3.05,0,0,0,166.34,77Zm.15,3.17a.42.42,0,0,1,0,.18l-3.73,8.25c-.93,2.2-1,2.2-3.11,2.2h-8.81v-11h15.31a.34.34,0,0,1,.31.16A.49.49,0,0,1,166.49,80.19Zm-12.1,24.43H150.8V93.5h9a.43.43,0,0,1,.36.21.56.56,0,0,1,.09.31.94.94,0,0,1-.07.34l0,.14c-.74,1.84-2.59,6.39-3.8,8.86C155.69,104.62,155.69,104.62,154.39,104.62Zm-27.47-23.5c0-1,.38-1.38,1.51-1.38l6.19,0,12.59,0h.93v35.05a1.21,1.21,0,0,1-1,1.33H127.67c-.43,0-.75-.47-.75-1.1Z" transform="translate(-68.31 -77.02)"/></svg>