<?xml version="1.0" encoding="utf-8"?>
<!-- Generator: Adobe Illustrator 26.0.0, SVG Export Plug-In . SVG Version: 6.00 Build 0)  -->
<svg version="1.1" id="Capa_1" xmlns="http://www.w3.org/2000/svg" xmlns:xlink="http://www.w3.org/1999/xlink" x="0px" y="0px"
	 viewBox="0 0 841.89 595.28" style="enable-background:new 0 0 841.89 595.28;" xml:space="preserve">
<style type="text/css">
	.st0{fill:#002E6D;}
	.st1{fill:#FFE800;}
	.st2{fill:#FFFFFF;}
</style>
<g>
	<path class="st0" d="M329.68,278.36c0-38.24-47.51-69.41-106.11-69.41c-58.6,0-106.11,31.17-106.11,69.41
		c0,0.99-0.01,3.72-0.01,4.06c0,40.56,41.52,73.42,106.11,73.42c64.99,0,106.13-32.85,106.13-73.41
		C329.68,281.01,329.68,280.2,329.68,278.36z"/>
	<path class="st1" d="M325.61,278.33c0,36.05-45.68,65.27-102.03,65.27c-56.35,0-102.03-29.22-102.03-65.27
		c0-36.05,45.68-65.28,102.03-65.28C279.93,213.05,325.61,242.28,325.61,278.33z"/>
	<g>
		<path class="st2" d="M189.71,257.73c-0.05,0.1-1.07,1.16-0.41,2c1.61,2.06,6.58,3.24,11.61,2.11c3-0.67,6.83-3.73,10.55-6.68
			c4.03-3.2,8.03-6.41,12.05-7.68c4.25-1.35,6.98-0.77,8.78-0.23c1.98,0.59,4.3,1.89,8.01,4.67c6.98,5.25,35.06,29.75,39.9,33.99
			c3.91-1.77,21.26-9.24,44.86-14.44c-2.05-12.58-9.7-24.08-21.3-33.51c-16.17,6.79-35.93,10.34-55.26,0.9
			c-0.1-0.04-10.56-4.99-20.88-4.75c-15.33,0.36-21.97,6.99-29.01,14.02L189.71,257.73z"/>
		<path class="st2" d="M279.05,288.58c-0.33-0.29-33.01-28.89-40.41-34.45c-4.28-3.21-6.67-4.03-9.17-4.35
			c-1.3-0.17-3.1,0.07-4.36,0.42c-3.44,0.94-7.95,3.95-11.94,7.12c-4.14,3.3-8.04,6.4-11.67,7.21c-4.62,1.04-10.28-0.19-12.85-1.93
			c-1.05-0.7-1.78-1.51-2.13-2.34c-0.95-2.21,0.81-3.97,1.09-4.27l9.02-9.75c1.05-1.05,2.1-2.09,3.18-3.12
			c-2.91,0.38-5.6,1.12-8.22,1.85c-3.27,0.92-6.41,1.79-9.59,1.79c-1.33,0-8.44-1.17-9.79-1.53c-8.16-2.23-15.32-4.41-26.02-9.4
			c-12.82,9.54-21.39,21.48-23.87,34.62c1.84,0.49,4.81,1.37,6.06,1.65c29.01,6.45,38.05,13.1,39.69,14.48
			c1.77-1.97,4.33-3.22,7.19-3.22c3.21,0,6.1,1.62,7.86,4.11c1.66-1.31,3.95-2.43,6.92-2.43c1.34,0,2.74,0.25,4.15,0.73
			c3.27,1.12,4.96,3.3,5.84,5.27c1.1-0.5,2.45-0.86,4.04-0.86c1.56,0,3.19,0.36,4.82,1.07c5.35,2.29,6.18,7.55,5.7,11.51
			c0.38-0.05,0.76-0.06,1.15-0.06c6.34,0,11.5,5.16,11.5,11.5c0,1.96-0.5,3.81-1.37,5.43c1.72,0.97,6.12,3.17,9.99,2.68
			c3.08-0.39,4.26-1.44,4.68-2.04c0.29-0.41,0.59-0.88,0.31-1.22l-8.18-9.09c0,0-1.35-1.27-0.9-1.77c0.46-0.51,1.29,0.22,1.88,0.71
			c4.17,3.48,9.25,8.73,9.25,8.73c0.08,0.05,0.42,0.72,2.3,1.06c1.62,0.29,4.48,0.12,6.47-1.5c0.5-0.41,1-0.93,1.42-1.46
			c-0.03,0.02-0.06,0.06-0.09,0.07c2.09-2.68-0.23-5.39-0.23-5.39l-9.56-10.73c0,0-1.36-1.26-0.9-1.77c0.42-0.44,1.3,0.22,1.89,0.72
			c3.03,2.53,7.3,6.82,11.4,10.83c0.8,0.59,4.4,2.81,9.17-0.32c2.9-1.9,3.48-4.23,3.39-5.99c-0.2-2.33-2.02-3.99-2.02-3.99
			l-13.06-13.12c0,0-1.38-1.18-0.89-1.78c0.4-0.5,1.29,0.22,1.88,0.71c4.16,3.48,15.42,13.8,15.42,13.8
			c0.16,0.11,4.05,2.88,8.85-0.18c1.72-1.1,2.82-2.76,2.91-4.68C281.41,290.56,279.05,288.58,279.05,288.58z"/>
		<path class="st2" d="M215.73,305.22c-2.02-0.02-4.24,1.18-4.53,1c-0.16-0.11,0.12-0.92,0.31-1.39c0.19-0.47,2.86-8.49-3.64-11.27
			c-4.97-2.14-8.01,0.27-9.06,1.35c-0.27,0.29-0.4,0.26-0.43-0.1c-0.1-1.44-0.75-5.35-5.04-6.66c-6.13-1.88-10.08,2.4-11.08,3.95
			c-0.45-3.5-3.4-6.21-7.02-6.21c-3.93,0-7.12,3.18-7.13,7.12c0,3.93,3.19,7.12,7.12,7.12c1.91,0.01,3.65-0.76,4.92-1.99
			c0.04,0.04,0.06,0.1,0.04,0.24c-0.3,1.76-0.85,8.16,5.85,10.76c2.69,1.04,4.97,0.27,6.87-1.06c0.57-0.4,0.66-0.23,0.58,0.3
			c-0.24,1.65,0.06,5.17,5,7.17c3.76,1.53,5.98-0.04,7.44-1.38c0.63-0.58,0.81-0.48,0.84,0.41c0.18,4.76,4.14,8.54,8.94,8.55
			c4.95,0,8.96-4,8.96-8.94C224.69,309.23,220.68,305.28,215.73,305.22z"/>
	</g>
	<path class="st0" d="M280.32,285.16c-10.07-8.79-33.33-29.01-39.63-33.74c-3.6-2.71-6.06-4.14-8.21-4.78
		c-0.97-0.29-2.31-0.63-4.03-0.63c-1.6,0-3.32,0.29-5.12,0.86c-4.07,1.29-8.13,4.51-12.05,7.63l-0.2,0.16
		c-3.66,2.9-7.43,5.91-10.29,6.55c-1.25,0.28-2.53,0.43-3.81,0.43c-3.2-0.01-6.08-0.93-7.16-2.3c-0.18-0.23-0.06-0.6,0.35-1.13
		l0.05-0.07l8.85-9.54c6.94-6.94,13.49-13.48,28.57-13.83c0.25-0.01,0.5-0.01,0.75-0.01c9.38,0.01,18.77,4.21,19.82,4.69
		c8.8,4.29,17.89,6.47,27.02,6.48c9.52,0,19.34-2.35,29.66-7.11c-1.15-0.97-2.35-1.91-3.59-2.84c-9.07,3.93-17.71,5.92-26.05,5.92
		c-8.52-0.01-17.03-2.05-25.29-6.08c-0.43-0.21-10.8-5.09-21.58-5.1c-0.28,0-0.57,0.01-0.85,0.01c-12.67,0.3-19.8,4.8-24.6,8.74
		c-4.67,0.11-8.69,1.24-12.28,2.24c-3.2,0.89-5.96,1.66-8.65,1.66c-1.11,0-3.1-0.1-3.28-0.11c-3.1-0.09-18.69-3.92-31.1-8.62
		c-1.27,0.9-2.49,1.82-3.67,2.77c12.96,5.31,28.74,9.42,33.72,9.75c1.38,0.09,2.86,0.25,4.34,0.25c3.29,0,6.58-0.93,9.76-1.81
		c1.88-0.53,3.95-1.1,6.13-1.52c-0.58,0.57-1.16,1.15-1.74,1.74l-9,9.73c-0.71,0.71-2.24,2.62-1.23,4.97
		c0.4,0.95,1.22,1.85,2.36,2.63c2.15,1.44,5.98,2.42,9.55,2.42c1.35,0,2.63-0.13,3.81-0.4c3.77-0.85,7.73-4,11.92-7.33
		c3.34-2.65,8.09-6.02,11.72-7.01c1.01-0.28,2.26-0.45,3.26-0.45c0.3,0,0.58,0.01,0.85,0.05c2.4,0.31,4.72,1.12,8.86,4.23
		c7.38,5.55,40.07,34.14,40.39,34.42c0.02,0.02,2.11,1.82,1.96,4.8c-0.08,1.67-1,3.15-2.61,4.17c-1.4,0.88-2.84,1.33-4.29,1.33
		c-2.18,0-3.69-1.03-3.78-1.1c-0.12-0.1-11.32-10.37-15.44-13.81c-0.66-0.54-1.29-1.03-1.94-1.03c-0.34,0-0.65,0.14-0.85,0.4
		c-0.65,0.8,0.08,1.9,0.93,2.63l13.08,13.15c0.02,0.02,1.63,1.53,1.81,3.54c0.1,2.18-0.94,4-3.1,5.42
		c-1.54,1.01-3.11,1.53-4.64,1.53c-2.01,0-3.42-0.92-3.73-1.13l-1.88-1.85c-3.43-3.38-6.97-6.86-9.56-9.03
		c-0.63-0.53-1.31-1.01-1.95-1.01c-0.32,0-0.6,0.12-0.82,0.35c-0.3,0.33-0.5,0.92,0.24,1.9c0.3,0.4,0.66,0.74,0.66,0.74l9.55,10.72
		c0.08,0.1,1.97,2.34,0.21,4.58l-0.34,0.43c-0.29,0.32-0.6,0.61-0.89,0.85c-1.63,1.34-3.8,1.48-4.66,1.48
		c-0.46,0-0.91-0.04-1.29-0.11c-0.94-0.17-1.57-0.43-1.88-0.8l-0.12-0.12c-0.52-0.54-5.33-5.45-9.31-8.78c-0.52-0.44-1.18-1-1.86-1
		c-0.33,0-0.63,0.13-0.86,0.39c-0.79,0.86,0.4,2.15,0.9,2.63l8.14,8.98c-0.01,0.08-0.11,0.27-0.31,0.55
		c-0.29,0.4-1.28,1.39-4.23,1.76c-0.35,0.04-0.72,0.06-1.08,0.06c-3.05,0-6.29-1.48-7.97-2.37c0.76-1.61,1.16-3.38,1.16-5.16
		c0-6.7-5.44-12.15-12.14-12.16c-0.14,0-0.29,0.01-0.44,0.01c0.22-3.06-0.21-8.85-6.16-11.4c-1.71-0.74-3.42-1.12-5.08-1.12
		c-1.3,0-2.55,0.22-3.72,0.67c-1.23-2.39-3.28-4.14-5.94-5.05c-1.47-0.51-2.94-0.77-4.36-0.77c-2.47,0-4.75,0.73-6.79,2.17
		c-1.95-2.42-4.89-3.86-7.99-3.86c-2.71,0-5.32,1.09-7.25,3c-2.53-1.93-12.59-8.32-39.49-14.43c-1.3-0.29-4.29-1.15-6.13-1.69
		c-0.3,1.46-0.53,2.93-0.69,4.42c0,0,4.96,1.19,5.94,1.41c27.48,6.1,36.56,12.45,38.1,13.65c-0.52,1.25-0.79,2.6-0.79,3.96
		c0,5.67,4.61,10.3,10.3,10.31c0.64,0,1.27-0.05,1.89-0.17c0.85,4.18,3.59,7.34,7.77,8.97c1.22,0.47,2.46,0.71,3.67,0.71
		c0.78,0,1.57-0.1,2.35-0.29c0.77,1.96,2.51,4.4,6.39,5.98c1.36,0.55,2.72,0.84,4.04,0.84c1.08,0,2.14-0.19,3.15-0.56
		c1.86,4.53,6.29,7.54,11.22,7.54c3.27,0,6.41-1.33,8.7-3.69c1.96,1.09,6.1,3.06,10.28,3.07c0.54,0,1.05-0.04,1.56-0.1
		c4.15-0.53,6.09-2.15,6.97-3.41c0.16-0.22,0.3-0.45,0.43-0.7c0.98,0.28,2.06,0.51,3.29,0.51c2.27,0,4.44-0.77,6.65-2.37
		c2.16-1.56,3.7-3.8,3.92-5.7c0-0.02,0.01-0.05,0.01-0.08c0.73,0.15,1.47,0.23,2.22,0.23c2.33,0,4.63-0.73,6.82-2.17
		c4.23-2.78,4.97-6.4,4.9-8.77c0.74,0.16,1.5,0.24,2.25,0.24c2.19,0,4.35-0.66,6.4-1.97c2.62-1.68,4.2-4.25,4.44-7.24
		c0.17-2.03-0.34-4.08-1.41-5.84c7.09-3.06,23.31-8.97,42.4-13.27c-0.11-1.48-0.33-2.94-0.59-4.4
		C301.87,275.78,284.64,283.24,280.32,285.16z M215.73,322.49c-4.49,0-8.13-3.49-8.3-7.93c-0.01-0.38-0.05-1.4-0.91-1.4
		c-0.35,0-0.66,0.21-1.01,0.53c-0.99,0.92-2.24,1.84-4.08,1.84c-0.83,0-1.74-0.19-2.69-0.58c-4.74-1.92-4.8-5.17-4.61-6.48
		c0.05-0.35,0.07-0.71-0.17-1l-0.29-0.26h-0.3c-0.24,0-0.49,0.1-0.82,0.34c-1.37,0.96-2.68,1.43-4.02,1.43
		c-0.73,0-1.49-0.15-2.25-0.44c-6.24-2.43-5.74-8.32-5.44-10.09c0.05-0.36-0.04-0.64-0.27-0.82l-0.44-0.36l-0.41,0.4
		c-1.22,1.17-2.81,1.81-4.48,1.81c-3.57,0-6.48-2.91-6.48-6.48c0-3.58,2.91-6.47,6.49-6.47c3.23,0,5.98,2.43,6.39,5.65l0.22,1.74
		l0.95-1.47c0.11-0.17,2.72-4.13,7.54-4.13c0.91,0,1.86,0.15,2.81,0.44c3.84,1.17,4.48,4.65,4.59,6.1c0.07,0.85,0.67,0.88,0.79,0.88
		c0.33,0,0.58-0.21,0.75-0.39c0.72-0.75,2.3-2.01,4.77-2.01c1.13,0,2.33,0.27,3.57,0.8c6.1,2.62,3.33,10.36,3.3,10.44
		c-0.52,1.28-0.54,1.85-0.05,2.18l0.24,0.11h0.17c0.28,0,0.62-0.12,1.18-0.31c0.83-0.29,2.08-0.72,3.25-0.72h0
		c4.59,0.05,8.32,3.79,8.32,8.32C224.05,318.77,220.32,322.49,215.73,322.49z"/>
</g>
<path class="st0" d="M372.38,240.1v31.21h-12.47v-28.72c0-13.95,7.02-20.87,20.96-20.87c6.28,0,11.08,1.39,14.59,4.16
	c3.51-2.68,8.31-3.97,14.59-3.97c13.95,0,20.87,6.93,20.78,20.87v28.72h-6.37c-4.06-0.28-6.09-2.22-6.09-6.1v-25.12
	c-0.28-5.08-3.05-7.57-8.5-7.57c-5.45,0-8.22,2.49-8.31,7.57v31.03h-12.38V240.1c-0.28-5.08-3.05-7.57-8.5-7.57
	C375.25,232.52,372.48,235.02,372.38,240.1z"/>
<path class="st0" d="M491.07,246.29c0.37-15.79,8.17-24.57,24.52-24.57h3.71v12.74l-5.71,0.12c-6.83,0-10.05,4.41-10.05,11.52v25.4
	h-12.47V246.29z"/>
<path class="st0" d="M588.06,237.04l-11.44-0.01c0.44-9.44,5.19-15.73,19.14-15.73c13.48,0,20.32,4.43,20.6,13.48v16.62
	c0,13.48-8.13,19.49-21.33,20.41c-11.73,0.92-19.86-4.52-19.86-15.33c0.28-11.73,8.77-14.87,21.15-16.07
	c5.26-0.65,7.94-2.22,7.94-4.89c-0.28-2.77-2.86-4.09-7.94-4.16C590.56,231.29,588.71,234.73,588.06,237.04z M604.44,250.85v-4
	c-2.86,1.2-6.19,1.69-9.79,2.43c-4.89,0.92-7.39,3.23-7.39,6.83c0.28,3.88,2.31,5.72,6.19,5.72
	C600.29,261.84,604.44,257.77,604.44,250.85z"/>
<path class="st0" d="M669.04,206.12v44.04c0,14.68-7.66,21.98-22.9,21.89c-15.15-0.28-22.72-8.5-22.72-24.75
	c0-16.62,6.46-25.12,19.49-25.58c6.1,0,10.81,2.49,13.95,7.57v-15.57l0.03-1.38C660.94,206.28,669.04,206.12,669.04,206.12z
	 M636.07,246.74c-0.09,9.88,3.23,14.87,10.25,14.87c7.02,0,10.53-4.99,10.53-14.87c-0.28-9.42-3.69-14.04-10.34-14.04
	C639.86,232.71,636.44,237.32,636.07,246.74z"/>
<path class="st0" d="M450.31,278.94h3.21v64.7h-12.28v-56.79C441.25,285,445.06,278.94,450.31,278.94z"/>
<path class="st0" d="M517.23,293.3c-6.09,0-10.71,2.49-13.85,7.57l0-21.94h-1.39l0,0c-6.12,0.07-9.34,3.34-10.89,6.02v-0.42v37.22
	c0,14.68,7.67,21.98,22.9,21.89c15.15-0.28,22.72-8.5,22.72-24.75C536.72,302.26,530.25,293.77,517.23,293.3z M513.63,333.2
	c-7.02,0-10.34-4.99-10.25-14.87c0.37-9.42,3.79-14.04,10.44-14.04c6.65,0,10.07,4.62,10.34,14.04
	C524.16,328.21,520.65,333.2,513.63,333.2z"/>
<g>
	<path class="st0" d="M452.74,259.04c1.96,1.9,4.79,2.85,8.47,2.85c2.64,0,4.91-0.66,6.81-1.98c1.9-1.32,3.07-2.72,3.5-4.19h11.51
		c-1.84,5.71-4.67,9.79-8.47,12.25c-3.81,2.46-8.41,3.68-13.81,3.68c-3.74,0-7.12-0.6-10.13-1.8c-3.01-1.2-5.55-2.9-7.64-5.11
		c-2.09-2.21-3.7-4.85-4.83-7.92c-1.14-3.07-1.7-6.44-1.7-10.13c0-3.56,0.58-6.87,1.75-9.94c1.17-3.07,2.82-5.72,4.97-7.96
		c2.15-2.24,4.71-4.01,7.69-5.29c2.98-1.29,6.27-1.93,9.9-1.93c4.05,0,7.58,0.78,10.59,2.35c3.01,1.56,5.48,3.67,7.41,6.31
		c1.93,2.64,3.33,5.65,4.19,9.02c0.86,3.38,1.17,6.91,0.92,10.59h-34.34C449.71,254.06,450.78,257.13,452.74,259.04z M467.52,233.99
		c-1.57-1.72-3.95-2.58-7.14-2.58c-2.09,0-3.82,0.35-5.2,1.06c-1.38,0.71-2.49,1.58-3.31,2.62c-0.83,1.04-1.41,2.15-1.75,3.31
		c-0.34,1.17-0.54,2.21-0.6,3.13h21.27C470.18,238.23,469.09,235.71,467.52,233.99z"/>
</g>
<g>
	<path class="st0" d="M546.94,231.26c-2.11,0-3.88,0.48-5.3,1.44c-1.43,0.96-2.59,2.2-3.49,3.72c-0.9,1.52-1.54,3.19-1.91,5.02
		c-0.37,1.83-0.56,3.64-0.56,5.44c0,1.74,0.19,3.5,0.56,5.3c0.37,1.8,0.98,3.43,1.81,4.88c0.84,1.46,1.97,2.65,3.39,3.58
		c1.43,0.93,3.16,1.4,5.21,1.4c3.16,0,5.59-0.88,7.3-2.65c1.7-1.77,2.77-4.14,3.21-7.11h12.74c-0.87,6.39-3.35,11.25-7.44,14.6
		c-4.09,3.35-9.33,5.02-15.72,5.02c-3.6,0-6.9-0.6-9.9-1.81c-3.01-1.21-5.57-2.9-7.67-5.07c-2.11-2.17-3.75-4.76-4.93-7.77
		c-1.18-3.01-1.77-6.31-1.77-9.9c0-3.72,0.54-7.18,1.63-10.37c1.08-3.19,2.68-5.95,4.79-8.28c2.11-2.33,4.68-4.14,7.72-5.44
		c3.04-1.3,6.51-1.95,10.42-1.95c2.85,0,5.59,0.37,8.23,1.12c2.63,0.74,4.99,1.88,7.07,3.39c2.08,1.52,3.77,3.41,5.07,5.67
		c1.3,2.26,2.05,4.95,2.23,8.04h-12.93C555.84,234.02,552.58,231.26,546.94,231.26z"/>
</g>
<g>
	<path class="st0" d="M678.49,236.24c1.18-3.13,2.85-5.8,5.02-8c2.17-2.2,4.77-3.91,7.81-5.11c3.04-1.21,6.45-1.81,10.23-1.81
		c3.78,0,7.21,0.6,10.28,1.81c3.07,1.21,5.69,2.91,7.86,5.11c2.17,2.2,3.84,4.87,5.02,8c1.18,3.13,1.77,6.62,1.77,10.46
		c0,3.85-0.59,7.32-1.77,10.42c-1.18,3.1-2.85,5.75-5.02,7.95c-2.17,2.2-4.79,3.89-7.86,5.07c-3.07,1.18-6.5,1.77-10.28,1.77
		c-3.78,0-7.19-0.59-10.23-1.77c-3.04-1.18-5.64-2.87-7.81-5.07c-2.17-2.2-3.84-4.85-5.02-7.95c-1.18-3.1-1.77-6.57-1.77-10.42
		C676.72,242.85,677.31,239.37,678.49,236.24z M690.49,252.32c0.37,1.83,1.01,3.47,1.91,4.93c0.9,1.46,2.09,2.62,3.58,3.49
		c1.49,0.87,3.35,1.3,5.58,1.3c2.23,0,4.11-0.43,5.63-1.3c1.52-0.87,2.73-2.03,3.63-3.49c0.9-1.46,1.54-3.1,1.91-4.93
		c0.37-1.83,0.56-3.7,0.56-5.63c0-1.92-0.19-3.81-0.56-5.67c-0.37-1.86-1.01-3.5-1.91-4.93c-0.9-1.43-2.11-2.59-3.63-3.49
		c-1.52-0.9-3.39-1.35-5.63-1.35c-2.23,0-4.09,0.45-5.58,1.35c-1.49,0.9-2.68,2.06-3.58,3.49c-0.9,1.43-1.54,3.07-1.91,4.93
		c-0.37,1.86-0.56,3.75-0.56,5.67C689.93,248.62,690.11,250.5,690.49,252.32z"/>
</g>
<path class="st0" d="M543.94,318.29c0.37-15.79,8.17-24.57,24.52-24.57h3.71v12.74l-5.71,0.12c-6.83,0-10.05,4.41-10.05,11.52v25.4
	h-12.47V318.29z"/>
<g>
	<path class="st0" d="M591.6,331.04c1.96,1.9,4.79,2.85,8.47,2.85c2.64,0,4.91-0.66,6.81-1.98c1.9-1.32,3.07-2.72,3.5-4.19h11.51
		c-1.84,5.71-4.67,9.79-8.47,12.25c-3.81,2.46-8.41,3.68-13.81,3.68c-3.74,0-7.12-0.6-10.13-1.79c-3.01-1.2-5.55-2.9-7.64-5.11
		c-2.09-2.21-3.7-4.85-4.83-7.92c-1.14-3.07-1.7-6.44-1.7-10.13c0-3.56,0.58-6.87,1.75-9.94c1.17-3.07,2.82-5.72,4.97-7.96
		c2.15-2.24,4.71-4,7.69-5.29c2.98-1.29,6.27-1.93,9.9-1.93c4.05,0,7.58,0.78,10.59,2.35c3.01,1.56,5.48,3.67,7.41,6.31
		c1.93,2.64,3.33,5.65,4.19,9.02c0.86,3.38,1.16,6.91,0.92,10.59h-34.34C588.56,326.06,589.64,329.13,591.6,331.04z M606.38,305.99
		c-1.57-1.72-3.95-2.58-7.14-2.58c-2.09,0-3.82,0.35-5.2,1.06c-1.38,0.71-2.49,1.58-3.31,2.62c-0.83,1.04-1.41,2.15-1.75,3.32
		c-0.34,1.17-0.54,2.21-0.6,3.13h21.27C609.03,310.23,607.94,307.71,606.38,305.99z"/>
</g>
<rect x="466.7" y="278.94" class="st0" width="12.29" height="11.19"/>
<rect x="466.7" y="295.75" class="st0" width="12.29" height="47.89"/>
</svg>
